<svg version="1.1" width="511.626" height="511.627" viewBox="0 0 511.626 511.627" xmlns="http://www.w3.org/2000/svg" xmlns:xlink="http://www.w3.org/1999/xlink" id="Capa_1" overflow="hidden"><g><path d=" M 491.361 211.274 C 477.85 179.675 459.672 152.461 436.832 129.616 C 413.993 106.775 386.773 88.599 355.173 75.086 C 323.572 61.573 290.46 54.815 255.814 54.815 C 221.17 54.815 188.052 61.574 156.457 75.086 C 124.862 88.604 97.644 106.775 74.804 129.616 C 51.959 152.461 33.786 179.675 20.27 211.274 C 6.757 242.873 0 275.988 0 310.631 C 0 360.496 13.418 406.469 40.256 448.534 C 43.87 454.054 49.01 456.812 55.673 456.812 L 455.954 456.812 C 462.614 456.812 467.754 454.053 471.368 448.534 C 498.208 406.28 511.626 360.31 511.626 310.631 C 511.626 275.988 504.872 242.873 491.361 211.274 Z M 229.973 102.069 C 237.115 94.93 245.725 91.36 255.813 91.36 C 265.902 91.36 274.512 94.931 281.651 102.069 C 288.79 109.204 292.362 117.818 292.362 127.906 C 292.362 137.994 288.79 146.605 281.651 153.743 C 274.512 160.881 265.902 164.452 255.813 164.452 C 245.725 164.452 237.111 160.881 229.973 153.743 C 222.838 146.604 219.266 137.994 219.266 127.906 C 219.266 117.818 222.834 109.205 229.973 102.069 Z M 98.929 336.469 C 91.791 343.604 83.177 347.184 73.089 347.184 C 63.004 347.184 54.39 343.604 47.252 336.469 C 40.113 329.337 36.547 320.72 36.547 310.631 C 36.547 300.543 40.113 291.933 47.252 284.794 C 54.391 277.655 63.004 274.086 73.089 274.086 C 83.177 274.086 91.795 277.655 98.929 284.794 C 106.064 291.933 109.636 300.543 109.636 310.631 C 109.636 320.72 106.064 329.33 98.929 336.469 Z M 153.748 208.562 C 146.606 215.699 137.996 219.271 127.907 219.271 C 117.818 219.271 109.205 215.695 102.066 208.562 C 94.931 201.427 91.36 192.813 91.36 182.725 C 91.36 172.637 94.927 164.026 102.066 156.888 C 109.208 149.749 117.818 146.179 127.907 146.179 C 137.995 146.179 146.609 149.75 153.748 156.888 C 160.883 164.027 164.454 172.637 164.454 182.725 C 164.454 192.81 160.882 201.423 153.748 208.562 Z M 315.482 210.99 L 286.643 320.052 C 296.167 326.52 303.019 335.178 307.207 346.032 C 311.389 356.881 311.964 368.016 308.918 379.436 C 305.112 394.093 296.64 405.229 283.505 412.839 C 270.37 420.453 256.479 422.36 241.819 418.551 C 227.166 414.745 216.028 406.276 208.417 393.141 C 200.806 380.003 198.903 366.114 202.709 351.453 C 205.753 340.037 211.749 330.663 220.696 323.34 C 229.64 316.007 239.822 311.872 251.242 310.918 L 280.079 201.854 C 281.41 196.906 284.265 193.143 288.641 190.573 C 293.022 188.008 297.586 187.389 302.347 188.72 C 307.111 190.054 310.772 192.859 313.338 197.14 C 315.914 201.427 316.625 206.042 315.482 210.99 Z M 357.882 208.562 C 350.743 201.427 347.171 192.813 347.171 182.725 C 347.171 172.637 350.743 164.026 357.882 156.888 C 365.021 149.75 373.631 146.179 383.72 146.179 C 393.808 146.179 402.418 149.75 409.557 156.888 C 416.696 164.026 420.269 172.637 420.269 182.725 C 420.269 192.81 416.696 201.424 409.557 208.562 C 402.418 215.699 393.808 219.271 383.72 219.271 C 373.631 219.271 365.021 215.699 357.882 208.562 Z M 464.374 336.469 C 457.235 343.604 448.625 347.184 438.537 347.184 C 428.448 347.184 419.838 343.604 412.699 336.469 C 405.56 329.337 401.991 320.72 401.991 310.631 C 401.991 300.543 405.56 291.933 412.699 284.794 C 419.838 277.655 428.448 274.086 438.537 274.086 C 448.625 274.086 457.235 277.655 464.374 284.794 C 471.513 291.933 475.078 300.543 475.078 310.631 C 475.078 320.72 471.512 329.33 464.374 336.469 Z" fill="#FFFFFF" fill-opacity="1"/></g><g></g><g></g><g></g><g></g><g></g><g></g><g></g><g></g><g></g><g></g><g></g><g></g><g></g><g></g><g></g></svg>