<svg version="1.1" viewBox="0 0 52 52" xmlns="http://www.w3.org/2000/svg" xmlns:xlink="http://www.w3.org/1999/xlink" id="Capa_1" overflow="hidden"><path d=" M 26 0 C 11.664 0 0 11.663 0 26 C 0 40.337 11.664 52 26 52 C 40.336 52 52 40.337 52 26 C 52 11.663 40.336 0 26 0 Z M 38.5 28 L 28 28 L 28 39 C 28 40.104 27.104 41 26 41 C 24.896 41 24 40.104 24 39 L 24 28 L 13.5 28 C 12.396 28 11.5 27.104 11.5 26 C 11.5 24.896 12.396 24 13.5 24 L 24 24 L 24 14 C 24 12.896 24.896 12 26 12 C 27.104 12 28 12.896 28 14 L 28 24 L 38.5 24 C 39.604 24 40.5 24.896 40.5 26 C 40.5 27.104 39.604 28 38.5 28 Z" fill="#05F26C"/><g></g><g></g><g></g><g></g><g></g><g></g><g></g><g></g><g></g><g></g><g></g><g></g><g></g><g></g><g></g></svg>