<?xml version="1.0"?>
<svg xmlns="http://www.w3.org/2000/svg" xmlns:xlink="http://www.w3.org/1999/xlink" class="" id="Capa_1" style="enable-background:new 0 0 52 52;" viewBox="0 0 52 52" x="0px" y="0px" width="512px" height="512px" xml:space="preserve" version="1.1"><g><g>
	<path class="active-path" d="M 26 0 C 11.664 0 0 11.663 0 26 s 11.664 26 26 26 s 26 -11.663 26 -26 S 40.336 0 26 0 Z M 26 50 C 12.767 50 2 39.233 2 26 S 12.767 2 26 2 s 24 10.767 24 24 S 39.233 50 26 50 Z" data-original="#000000" data-old_color="#000000" fill="#FFFFFF"/>
	<path class="active-path" d="M 38.5 25 H 27 V 14 c 0 -0.553 -0.448 -1 -1 -1 s -1 0.447 -1 1 v 11 H 13.5 c -0.552 0 -1 0.447 -1 1 s 0.448 1 1 1 H 25 v 12 c 0 0.553 0.448 1 1 1 s 1 -0.447 1 -1 V 27 h 11.5 c 0.552 0 1 -0.447 1 -1 S 39.052 25 38.5 25 Z" data-original="#000000" data-old_color="#000000" fill="#FFFFFF"/>
</g></g> </svg>
